<svg xmlns="http://www.w3.org/2000/svg" viewBox="0 0 200 200" width="200" height="200">
  <rect width="200" height="200" fill="white"/>
  <!-- QR Code Pattern (simplified) -->
  <g fill="black">
    <!-- Top-left finder pattern -->
    <rect x="10" y="10" width="50" height="50"/>
    <rect x="15" y="15" width="40" height="40" fill="white"/>
    <rect x="20" y="20" width="30" height="30"/>
    
    <!-- Top-right finder pattern -->
    <rect x="140" y="10" width="50" height="50"/>
    <rect x="145" y="15" width="40" height="40" fill="white"/>
    <rect x="150" y="20" width="30" height="30"/>
    
    <!-- Bottom-left finder pattern -->
    <rect x="10" y="140" width="50" height="50"/>
    <rect x="15" y="145" width="40" height="40" fill="white"/>
    <rect x="20" y="150" width="30" height="30"/>
    
    <!-- Data modules (random pattern) -->
    <rect x="70" y="10" width="10" height="10"/>
    <rect x="90" y="10" width="10" height="10"/>
    <rect x="110" y="10" width="10" height="10"/>
    <rect x="70" y="30" width="10" height="10"/>
    <rect x="100" y="30" width="10" height="10"/>
    <rect x="120" y="30" width="10" height="10"/>
    <rect x="80" y="50" width="10" height="10"/>
    <rect x="110" y="50" width="10" height="10"/>
    <rect x="70" y="70" width="10" height="10"/>
    <rect x="90" y="70" width="10" height="10"/>
    <rect x="130" y="70" width="10" height="10"/>
    <rect x="10" y="70" width="10" height="10"/>
    <rect x="30" y="70" width="10" height="10"/>
    <rect x="50" y="70" width="10" height="10"/>
    <rect x="10" y="90" width="10" height="10"/>
    <rect x="40" y="90" width="10" height="10"/>
    <rect x="70" y="90" width="10" height="10"/>
    <rect x="100" y="90" width="10" height="10"/>
    <rect x="130" y="90" width="10" height="10"/>
    <rect x="160" y="90" width="10" height="10"/>
    <rect x="10" y="110" width="10" height="10"/>
    <rect x="50" y="110" width="10" height="10"/>
    <rect x="80" y="110" width="10" height="10"/>
    <rect x="110" y="110" width="10" height="10"/>
    <rect x="140" y="110" width="10" height="10"/>
    <rect x="170" y="110" width="10" height="10"/>
    <rect x="70" y="130" width="10" height="10"/>
    <rect x="100" y="130" width="10" height="10"/>
    <rect x="130" y="130" width="10" height="10"/>
    <rect x="160" y="130" width="10" height="10"/>
    <rect x="70" y="150" width="10" height="10"/>
    <rect x="90" y="150" width="10" height="10"/>
    <rect x="120" y="150" width="10" height="10"/>
    <rect x="150" y="150" width="10" height="10"/>
    <rect x="180" y="150" width="10" height="10"/>
    <rect x="80" y="170" width="10" height="10"/>
    <rect x="110" y="170" width="10" height="10"/>
    <rect x="140" y="170" width="10" height="10"/>
    <rect x="170" y="170" width="10" height="10"/>
  </g>
  <!-- DuitNow Logo Text -->
  <text x="100" y="195" font-family="Arial, sans-serif" font-size="12" font-weight="bold" text-anchor="middle" fill="#0066cc">DUITNOW</text>
</svg>
